<?xml version="1.0" standalone="no"?>
<!DOCTYPE svg PUBLIC "-//W3C//DTD SVG 20010904//EN"
 "http://www.w3.org/TR/2001/REC-SVG-20010904/DTD/svg10.dtd">
<svg version="1.0" xmlns="http://www.w3.org/2000/svg"
 width="300.000000pt" height="210.000000pt" viewBox="0 0 300.000000 210.000000"
 preserveAspectRatio="xMidYMid meet">
<metadata>
Created by potrace 1.10, written by Peter Selinger 2001-2011
</metadata>
<g transform="translate(0.000000,210.000000) scale(0.100000,-0.100000)"
fill="#000000" stroke="none">
<path d="M341 1939 c-90 -18 -166 -83 -196 -170 -23 -63 -22 -1395 0 -1460 21
-62 63 -109 126 -144 l54 -30 1170 0 1170 0 53 29 c30 17 67 47 83 67 60 77
59 56 59 813 l0 691 -24 50 c-29 63 -77 112 -136 139 -45 21 -52 21 -1180 23
-624 0 -1155 -3 -1179 -8z m2355 -60 c50 -24 89 -69 110 -126 10 -30 13 -176
13 -718 l1 -680 -24 -51 c-24 -52 -68 -94 -119 -113 -19 -8 -390 -11 -1184
-11 -1156 0 -1156 0 -1199 21 -52 25 -97 76 -113 128 -16 54 -16 1368 0 1422
16 52 60 102 111 128 l43 21 1158 0 1157 0 46 -21z"/>
<path d="M324 1841 c-23 -10 -54 -36 -70 -57 l-29 -37 -7 -281 c-5 -155 -5
-468 -2 -696 6 -370 8 -419 24 -450 21 -40 42 -61 87 -84 29 -14 140 -16 1163
-16 995 0 1135 2 1167 15 49 20 71 41 96 90 20 39 20 53 20 715 0 662 0 676
-20 715 -25 49 -47 70 -96 90 -32 13 -172 15 -1164 15 -1080 0 -1130 -1 -1169
-19z m2332 -37 c18 -9 43 -31 54 -49 20 -32 20 -48 20 -715 0 -667 0 -683 -20
-715 -43 -69 34 -65 -1215 -65 -1249 0 -1175 -4 -1216 64 -18 30 -19 63 -19
716 0 651 1 687 19 716 41 68 -35 64 1214 64 1016 0 1132 -2 1163 -16z"/>
<path d="M537 1616 c-56 -15 -102 -55 -128 -111 -17 -37 -19 -73 -19 -471 l0
-432 28 -53 c22 -43 38 -59 82 -81 l53 -29 456 3 c440 3 457 4 496 24 22 11
54 40 70 63 l30 43 3 436 c2 299 0 449 -8 475 -13 44 -60 101 -104 125 -28 15
-78 17 -471 19 -338 2 -451 -1 -488 -11z m946 -51 c18 -8 43 -32 57 -52 l25
-37 3 -430 3 -431 -23 -45 c-17 -33 -35 -51 -68 -68 l-45 -23 -446 3 -445 3
-41 27 c-74 49 -74 53 -71 538 2 330 6 431 16 451 8 14 32 38 55 52 l41 27
454 0 c384 0 459 -2 485 -15z"/>
<path d="M555 1530 c-11 -4 -31 -20 -45 -35 l-25 -27 -3 -416 c-2 -300 1 -424
9 -444 25 -60 98 -88 131 -50 9 9 23 42 31 72 27 94 99 171 197 211 55 22 261
19 324 -5 86 -33 174 -131 191 -213 9 -42 41 -83 67 -83 11 0 35 15 54 34 l34
34 0 422 c0 463 1 458 -60 494 -25 14 -77 16 -457 15 -235 0 -437 -4 -448 -9z
m905 -50 c19 -19 20 -33 20 -444 l0 -425 -26 -20 c-35 -27 -44 -26 -44 4 0 46
-41 134 -86 184 -29 32 -69 62 -112 83 -66 33 -69 33 -207 33 -133 0 -143 -1
-197 -28 -103 -51 -178 -146 -196 -248 -7 -39 -11 -44 -33 -41 -13 1 -32 12
-41 23 -17 19 -18 56 -18 439 l0 419 26 20 c26 21 37 21 460 21 421 0 435 -1
454 -20z"/>
<path d="M936 1418 c-57 -16 -141 -101 -156 -158 -51 -193 121 -358 308 -296
101 34 175 153 158 258 -23 145 -167 236 -310 196z m131 -43 c90 -27 154 -126
138 -214 -18 -101 -115 -179 -210 -169 -102 12 -175 84 -183 182 -9 112 73
203 194 215 6 1 33 -6 61 -14z"/>
<path d="M942 1323 c-74 -36 -105 -139 -62 -208 31 -51 74 -75 134 -75 44 0
53 4 92 43 47 48 59 80 50 132 -18 96 -127 151 -214 108z m144 -57 c28 -28 34
-42 34 -76 0 -57 -50 -110 -105 -110 -71 0 -114 41 -115 109 0 36 6 49 34 77
28 28 42 34 76 34 34 0 48 -6 76 -34z"/>
<path d="M913 810 c-60 -13 -115 -44 -153 -86 -60 -69 -76 -137 -39 -170 19
-17 42 -19 281 -22 283 -3 301 0 314 52 14 57 -69 171 -152 207 -49 22 -186
32 -251 19z m235 -56 c62 -26 113 -85 136 -161 l7 -23 -281 0 -282 0 7 28 c14
57 55 112 108 142 49 28 59 30 160 30 75 0 119 -5 145 -16z"/>
<path d="M1742 1253 c-31 -28 -35 -56 -11 -86 l20 -27 235 0 c221 0 235 1 254
20 28 28 25 64 -6 89 -25 20 -39 21 -249 21 -198 0 -225 -2 -243 -17z m462
-43 c25 -25 -15 -30 -220 -28 -187 3 -209 5 -212 20 -3 14 7 18 65 20 130 6
357 -2 367 -12z"/>
<path d="M1744 922 c-37 -24 -36 -91 1 -106 23 -9 808 -7 821 2 24 16 35 51
23 75 -7 12 -17 25 -23 29 -6 4 -191 8 -411 8 -220 0 -405 -4 -411 -8z m796
-52 c0 -20 -7 -20 -384 -20 -246 0 -387 4 -391 10 -17 27 18 30 391 30 377 0
384 0 384 -20z"/>
</g>
</svg>
